<?xml version="1.0" encoding="UTF-8" ?>
<svg width="1000" height="1000" xmlns="http://www.w3.org/2000/svg" xmlns:xlink="http://www.w3.org/1999/xlink">
<path d="M0.000000,1000.000000L55.555556,1000.000000L37.037037,962.962963L0.000000,944.444444Z" fill="rgb(1.8121, 1.8121, 1.8121)" stroke="black" stroke-width="1"/>
<path d="M55.555556,1000.000000L111.111111,1000.000000L166.666667,1000.000000L148.148148,962.962963L111.111111,944.444444L74.074074,925.925926L55.555556,944.444444L37.037037,962.962963Z" fill="rgb(71.6602, 71.6602, 71.6602)" stroke="black" stroke-width="1"/>
<path d="M166.666667,1000.000000L222.222222,1000.000000L277.777778,1000.000000L259.259259,962.962963L222.222222,944.444444L185.185185,925.925926L166.666667,944.444444L148.148148,962.962963Z" fill="rgb(23.8875, 23.8875, 23.8875)" stroke="black" stroke-width="1"/>
<path d="M277.777778,1000.000000L333.333333,1000.000000L388.888889,1000.000000L370.370370,962.962963L333.333333,944.444444L296.296296,925.925926L277.777778,944.444444L259.259259,962.962963Z" fill="rgb(29.5183, 29.5183, 29.5183)" stroke="black" stroke-width="1"/>
<path d="M388.888889,1000.000000L444.444444,1000.000000L500.000000,1000.000000L481.481481,962.962963L444.444444,944.444444L407.407407,925.925926L388.888889,944.444444L370.370370,962.962963Z" fill="rgb(58.2808, 58.2808, 58.2808)" stroke="black" stroke-width="1"/>
<path d="M500.000000,1000.000000L555.555556,1000.000000L611.111111,1000.000000L592.592593,962.962963L555.555556,944.444444L518.518519,925.925926L500.000000,944.444444L481.481481,962.962963Z" fill="rgb(77.0235, 77.0235, 77.0235)" stroke="black" stroke-width="1"/>
<path d="M611.111111,1000.000000L666.666667,1000.000000L722.222222,1000.000000L703.703704,962.962963L666.666667,944.444444L629.629630,925.925926L611.111111,944.444444L592.592593,962.962963Z" fill="rgb(94.8653, 94.8653, 94.8653)" stroke="black" stroke-width="1"/>
<path d="M722.222222,1000.000000L777.777778,1000.000000L833.333333,1000.000000L814.814815,962.962963L777.777778,944.444444L740.740741,925.925926L722.222222,944.444444L703.703704,962.962963Z" fill="rgb(69.0699, 69.0699, 69.0699)" stroke="black" stroke-width="1"/>
<path d="M833.333333,1000.000000L888.888889,1000.000000L944.444444,1000.000000L925.925926,962.962963L888.888889,944.444444L851.851852,925.925926L833.333333,944.444444L814.814815,962.962963Z" fill="rgb(49.1804, 49.1804, 49.1804)" stroke="black" stroke-width="1"/>
<path d="M944.444444,1000.000000L1000.000000,1000.000000L1000.000000,944.444444L962.962963,925.925926L944.444444,944.444444L925.925926,962.962963Z" fill="rgb(16.1101, 16.1101, 16.1101)" stroke="black" stroke-width="1"/>
<path d="M0.000000,944.444444L37.037037,962.962963L55.555556,944.444444L74.074074,925.925926L55.555556,888.888889L37.037037,851.851852L0.000000,833.333333L0.000000,888.888889Z" fill="rgb(53.1567, 53.1567, 53.1567)" stroke="black" stroke-width="1"/>
<path d="M74.074074,925.925926L111.111111,944.444444L148.148148,962.962963L166.666667,944.444444L185.185185,925.925926L166.666667,888.888889L148.148148,851.851852L111.111111,833.333333L74.074074,814.814815L55.555556,833.333333L37.037037,851.851852L55.555556,888.888889Z" fill="rgb(144.272, 144.272, 144.272)" stroke="black" stroke-width="1"/>
<path d="M185.185185,925.925926L222.222222,944.444444L259.259259,962.962963L277.777778,944.444444L296.296296,925.925926L277.777778,888.888889L259.259259,851.851852L222.222222,833.333333L185.185185,814.814815L166.666667,833.333333L148.148148,851.851852L166.666667,888.888889Z" fill="rgb(59.1004, 59.1004, 59.1004)" stroke="black" stroke-width="1"/>
<path d="M277.777778,888.888889L296.296296,925.925926L333.333333,944.444444L370.370370,962.962963L388.888889,944.444444L407.407407,925.925926L388.888889,888.888889L370.370370,851.851852L333.333333,833.333333L296.296296,814.814815L277.777778,833.333333L259.259259,851.851852Z" fill="rgb(87.8414, 87.8414, 87.8414)" stroke="black" stroke-width="1"/>
<path d="M407.407407,925.925926L444.444444,944.444444L481.481481,962.962963L500.000000,944.444444L518.518519,925.925926L500.000000,888.888889L481.481481,851.851852L444.444444,833.333333L407.407407,814.814815L388.888889,833.333333L370.370370,851.851852L388.888889,888.888889Z" fill="rgb(116.98, 116.98, 116.98)" stroke="black" stroke-width="1"/>
<path d="M518.518519,925.925926L555.555556,944.444444L592.592593,962.962963L611.111111,944.444444L629.629630,925.925926L611.111111,888.888889L592.592593,851.851852L555.555556,833.333333L518.518519,814.814815L500.000000,833.333333L481.481481,851.851852L500.000000,888.888889Z" fill="rgb(175.288, 175.288, 175.288)" stroke="black" stroke-width="1"/>
<path d="M629.629630,925.925926L666.666667,944.444444L703.703704,962.962963L722.222222,944.444444L740.740741,925.925926L722.222222,888.888889L703.703704,851.851852L666.666667,833.333333L629.629630,814.814815L611.111111,833.333333L592.592593,851.851852L611.111111,888.888889Z" fill="rgb(243.654, 243.654, 243.654)" stroke="black" stroke-width="1"/>
<path d="M740.740741,925.925926L777.777778,944.444444L814.814815,962.962963L833.333333,944.444444L851.851852,925.925926L833.333333,888.888889L814.814815,851.851852L777.777778,833.333333L740.740741,814.814815L722.222222,833.333333L703.703704,851.851852L722.222222,888.888889Z" fill="rgb(146.676, 146.676, 146.676)" stroke="black" stroke-width="1"/>
<path d="M851.851852,925.925926L888.888889,944.444444L925.925926,962.962963L944.444444,944.444444L962.962963,925.925926L944.444444,888.888889L925.925926,851.851852L888.888889,833.333333L851.851852,814.814815L833.333333,833.333333L814.814815,851.851852L833.333333,888.888889Z" fill="rgb(167.319, 167.319, 167.319)" stroke="black" stroke-width="1"/>
<path d="M944.444444,888.888889L962.962963,925.925926L1000.000000,944.444444L1000.000000,888.888889L1000.000000,833.333333L962.962963,814.814815L944.444444,833.333333L925.925926,851.851852Z" fill="rgb(43.2768, 43.2768, 43.2768)" stroke="black" stroke-width="1"/>
<path d="M0.000000,833.333333L37.037037,851.851852L55.555556,833.333333L74.074074,814.814815L55.555556,777.777778L37.037037,740.740741L0.000000,722.222222L0.000000,777.777778Z" fill="rgb(41.0755, 41.0755, 41.0755)" stroke="black" stroke-width="1"/>
<path d="M74.074074,814.814815L111.111111,833.333333L148.148148,851.851852L166.666667,833.333333L185.185185,814.814815L166.666667,777.777778L148.148148,740.740741L111.111111,722.222222L74.074074,703.703704L55.555556,722.222222L37.037037,740.740741L55.555556,777.777778Z" fill="rgb(154.481, 154.481, 154.481)" stroke="black" stroke-width="1"/>
<path d="M185.185185,814.814815L222.222222,833.333333L259.259259,851.851852L277.777778,833.333333L296.296296,814.814815L277.777778,777.777778L259.259259,740.740741L222.222222,722.222222L185.185185,703.703704L166.666667,722.222222L148.148148,740.740741L166.666667,777.777778Z" fill="rgb(83.5226, 83.5226, 83.5226)" stroke="black" stroke-width="1"/>
<path d="M296.296296,814.814815L333.333333,833.333333L370.370370,851.851852L388.888889,833.333333L407.407407,814.814815L388.888889,777.777778L370.370370,740.740741L333.333333,722.222222L296.296296,703.703704L277.777778,722.222222L259.259259,740.740741L277.777778,777.777778Z" fill="rgb(98.0433, 98.0433, 98.0433)" stroke="black" stroke-width="1"/>
<path d="M407.407407,814.814815L444.444444,833.333333L481.481481,851.851852L500.000000,833.333333L518.518519,814.814815L500.000000,777.777778L481.481481,740.740741L444.444444,722.222222L407.407407,703.703704L388.888889,722.222222L370.370370,740.740741L388.888889,777.777778Z" fill="rgb(82.0062, 82.0062, 82.0062)" stroke="black" stroke-width="1"/>
<path d="M518.518519,814.814815L555.555556,833.333333L592.592593,851.851852L611.111111,833.333333L629.629630,814.814815L611.111111,777.777778L592.592593,740.740741L555.555556,722.222222L518.518519,703.703704L500.000000,722.222222L481.481481,740.740741L500.000000,777.777778Z" fill="rgb(186.235, 186.235, 186.235)" stroke="black" stroke-width="1"/>
<path d="M629.629630,814.814815L666.666667,833.333333L703.703704,851.851852L722.222222,833.333333L740.740741,814.814815L722.222222,777.777778L703.703704,740.740741L666.666667,722.222222L629.629630,703.703704L611.111111,722.222222L592.592593,740.740741L611.111111,777.777778Z" fill="rgb(125.127, 125.127, 125.127)" stroke="black" stroke-width="1"/>
<path d="M740.740741,814.814815L777.777778,833.333333L814.814815,851.851852L833.333333,833.333333L851.851852,814.814815L833.333333,777.777778L814.814815,740.740741L777.777778,722.222222L740.740741,703.703704L722.222222,722.222222L703.703704,740.740741L722.222222,777.777778Z" fill="rgb(157.692, 157.692, 157.692)" stroke="black" stroke-width="1"/>
<path d="M851.851852,814.814815L888.888889,833.333333L925.925926,851.851852L944.444444,833.333333L962.962963,814.814815L944.444444,777.777778L925.925926,740.740741L888.888889,722.222222L851.851852,703.703704L833.333333,722.222222L814.814815,740.740741L833.333333,777.777778Z" fill="rgb(192.157, 192.157, 192.157)" stroke="black" stroke-width="1"/>
<path d="M944.444444,777.777778L962.962963,814.814815L1000.000000,833.333333L1000.000000,777.777778L1000.000000,722.222222L962.962963,703.703704L944.444444,722.222222L925.925926,740.740741Z" fill="rgb(73.6294, 73.6294, 73.6294)" stroke="black" stroke-width="1"/>
<path d="M0.000000,722.222222L37.037037,740.740741L55.555556,722.222222L74.074074,703.703704L55.555556,666.666667L37.037037,629.629630L0.000000,611.111111L0.000000,666.666667Z" fill="rgb(31.4206, 31.4206, 31.4206)" stroke="black" stroke-width="1"/>
<path d="M74.074074,703.703704L111.111111,722.222222L148.148148,740.740741L166.666667,722.222222L185.185185,703.703704L166.666667,666.666667L148.148148,629.629630L111.111111,611.111111L74.074074,592.592593L55.555556,611.111111L37.037037,629.629630L55.555556,666.666667Z" fill="rgb(163.288, 163.288, 163.288)" stroke="black" stroke-width="1"/>
<path d="M185.185185,703.703704L222.222222,722.222222L259.259259,740.740741L277.777778,722.222222L296.296296,703.703704L277.777778,666.666667L259.259259,629.629630L222.222222,611.111111L185.185185,592.592593L166.666667,611.111111L148.148148,629.629630L166.666667,666.666667Z" fill="rgb(104.182, 104.182, 104.182)" stroke="black" stroke-width="1"/>
<path d="M296.296296,703.703704L333.333333,722.222222L370.370370,740.740741L388.888889,722.222222L407.407407,703.703704L388.888889,666.666667L370.370370,629.629630L333.333333,611.111111L296.296296,592.592593L277.777778,611.111111L259.259259,629.629630L277.777778,666.666667Z" fill="rgb(95.3415, 95.3415, 95.3415)" stroke="black" stroke-width="1"/>
<path d="M407.407407,703.703704L444.444444,722.222222L481.481481,740.740741L500.000000,722.222222L518.518519,703.703704L500.000000,666.666667L481.481481,629.629630L444.444444,611.111111L407.407407,592.592593L388.888889,611.111111L370.370370,629.629630L388.888889,666.666667Z" fill="rgb(115.549, 115.549, 115.549)" stroke="black" stroke-width="1"/>
<path d="M518.518519,703.703704L555.555556,722.222222L592.592593,740.740741L611.111111,722.222222L629.629630,703.703704L611.111111,666.666667L592.592593,629.629630L555.555556,611.111111L518.518519,592.592593L500.000000,611.111111L481.481481,629.629630L500.000000,666.666667Z" fill="rgb(177.744, 177.744, 177.744)" stroke="black" stroke-width="1"/>
<path d="M629.629630,703.703704L666.666667,722.222222L703.703704,740.740741L722.222222,722.222222L740.740741,703.703704L722.222222,666.666667L703.703704,629.629630L666.666667,611.111111L629.629630,592.592593L611.111111,611.111111L592.592593,629.629630L611.111111,666.666667Z" fill="rgb(106.512, 106.512, 106.512)" stroke="black" stroke-width="1"/>
<path d="M740.740741,703.703704L777.777778,722.222222L814.814815,740.740741L833.333333,722.222222L851.851852,703.703704L833.333333,666.666667L814.814815,629.629630L777.777778,611.111111L740.740741,592.592593L722.222222,611.111111L703.703704,629.629630L722.222222,666.666667Z" fill="rgb(164.242, 164.242, 164.242)" stroke="black" stroke-width="1"/>
<path d="M851.851852,703.703704L888.888889,722.222222L925.925926,740.740741L944.444444,722.222222L962.962963,703.703704L944.444444,666.666667L925.925926,629.629630L888.888889,611.111111L851.851852,592.592593L833.333333,611.111111L814.814815,629.629630L833.333333,666.666667Z" fill="rgb(218.005, 218.005, 218.005)" stroke="black" stroke-width="1"/>
<path d="M944.444444,666.666667L962.962963,703.703704L1000.000000,722.222222L1000.000000,666.666667L1000.000000,611.111111L962.962963,592.592593L944.444444,611.111111L925.925926,629.629630Z" fill="rgb(122.209, 122.209, 122.209)" stroke="black" stroke-width="1"/>
<path d="M0.000000,611.111111L37.037037,629.629630L55.555556,611.111111L74.074074,592.592593L55.555556,555.555556L37.037037,518.518519L0.000000,500.000000L0.000000,555.555556Z" fill="rgb(36.4375, 36.4375, 36.4375)" stroke="black" stroke-width="1"/>
<path d="M55.555556,555.555556L74.074074,592.592593L111.111111,611.111111L148.148148,629.629630L166.666667,611.111111L185.185185,592.592593L166.666667,555.555556L148.148148,518.518519L111.111111,500.000000L74.074074,481.481481L55.555556,500.000000L37.037037,518.518519Z" fill="rgb(165.238, 165.238, 165.238)" stroke="black" stroke-width="1"/>
<path d="M166.666667,555.555556L185.185185,592.592593L222.222222,611.111111L259.259259,629.629630L277.777778,611.111111L296.296296,592.592593L277.777778,555.555556L259.259259,518.518519L222.222222,500.000000L185.185185,481.481481L166.666667,500.000000L148.148148,518.518519Z" fill="rgb(109.582, 109.582, 109.582)" stroke="black" stroke-width="1"/>
<path d="M277.777778,555.555556L296.296296,592.592593L333.333333,611.111111L370.370370,629.629630L388.888889,611.111111L407.407407,592.592593L388.888889,555.555556L370.370370,518.518519L333.333333,500.000000L296.296296,481.481481L277.777778,500.000000L259.259259,518.518519Z" fill="rgb(86.1696, 86.1696, 86.1696)" stroke="black" stroke-width="1"/>
<path d="M388.888889,555.555556L407.407407,592.592593L444.444444,611.111111L481.481481,629.629630L500.000000,611.111111L518.518519,592.592593L500.000000,555.555556L481.481481,518.518519L444.444444,500.000000L407.407407,481.481481L388.888889,500.000000L370.370370,518.518519Z" fill="rgb(151.817, 151.817, 151.817)" stroke="black" stroke-width="1"/>
<path d="M500.000000,555.555556L518.518519,592.592593L555.555556,611.111111L592.592593,629.629630L611.111111,611.111111L629.629630,592.592593L611.111111,555.555556L592.592593,518.518519L555.555556,500.000000L518.518519,481.481481L500.000000,500.000000L481.481481,518.518519Z" fill="rgb(168.484, 168.484, 168.484)" stroke="black" stroke-width="1"/>
<path d="M611.111111,555.555556L629.629630,592.592593L666.666667,611.111111L703.703704,629.629630L722.222222,611.111111L740.740741,592.592593L722.222222,555.555556L703.703704,518.518519L666.666667,500.000000L629.629630,481.481481L611.111111,500.000000L592.592593,518.518519Z" fill="rgb(127.304, 127.304, 127.304)" stroke="black" stroke-width="1"/>
<path d="M740.740741,592.592593L777.777778,611.111111L814.814815,629.629630L833.333333,611.111111L851.851852,592.592593L833.333333,555.555556L814.814815,518.518519L777.777778,500.000000L740.740741,481.481481L722.222222,500.000000L703.703704,518.518519L722.222222,555.555556Z" fill="rgb(126.971, 126.971, 126.971)" stroke="black" stroke-width="1"/>
<path d="M851.851852,592.592593L888.888889,611.111111L925.925926,629.629630L944.444444,611.111111L962.962963,592.592593L944.444444,555.555556L925.925926,518.518519L888.888889,500.000000L851.851852,481.481481L833.333333,500.000000L814.814815,518.518519L833.333333,555.555556Z" fill="rgb(194.633, 194.633, 194.633)" stroke="black" stroke-width="1"/>
<path d="M944.444444,555.555556L962.962963,592.592593L1000.000000,611.111111L1000.000000,555.555556L1000.000000,500.000000L962.962963,481.481481L944.444444,500.000000L925.925926,518.518519Z" fill="rgb(93.4295, 93.4295, 93.4295)" stroke="black" stroke-width="1"/>
<path d="M0.000000,500.000000L37.037037,518.518519L55.555556,500.000000L74.074074,481.481481L55.555556,444.444444L37.037037,407.407407L0.000000,388.888889L0.000000,444.444444Z" fill="rgb(49.6549, 49.6549, 49.6549)" stroke="black" stroke-width="1"/>
<path d="M74.074074,481.481481L111.111111,500.000000L148.148148,518.518519L166.666667,500.000000L185.185185,481.481481L166.666667,444.444444L148.148148,407.407407L111.111111,388.888889L74.074074,370.370370L55.555556,388.888889L37.037037,407.407407L55.555556,444.444444Z" fill="rgb(159.044, 159.044, 159.044)" stroke="black" stroke-width="1"/>
<path d="M185.185185,481.481481L222.222222,500.000000L259.259259,518.518519L277.777778,500.000000L296.296296,481.481481L277.777778,444.444444L259.259259,407.407407L222.222222,388.888889L185.185185,370.370370L166.666667,388.888889L148.148148,407.407407L166.666667,444.444444Z" fill="rgb(134.607, 134.607, 134.607)" stroke="black" stroke-width="1"/>
<path d="M296.296296,481.481481L333.333333,500.000000L370.370370,518.518519L388.888889,500.000000L407.407407,481.481481L388.888889,444.444444L370.370370,407.407407L333.333333,388.888889L296.296296,370.370370L277.777778,388.888889L259.259259,407.407407L277.777778,444.444444Z" fill="rgb(108.047, 108.047, 108.047)" stroke="black" stroke-width="1"/>
<path d="M407.407407,481.481481L444.444444,500.000000L481.481481,518.518519L500.000000,500.000000L518.518519,481.481481L500.000000,444.444444L481.481481,407.407407L444.444444,388.888889L407.407407,370.370370L388.888889,388.888889L370.370370,407.407407L388.888889,444.444444Z" fill="rgb(111.968, 111.968, 111.968)" stroke="black" stroke-width="1"/>
<path d="M518.518519,481.481481L555.555556,500.000000L592.592593,518.518519L611.111111,500.000000L629.629630,481.481481L611.111111,444.444444L592.592593,407.407407L555.555556,388.888889L518.518519,370.370370L500.000000,388.888889L481.481481,407.407407L500.000000,444.444444Z" fill="rgb(195.121, 195.121, 195.121)" stroke="black" stroke-width="1"/>
<path d="M629.629630,481.481481L666.666667,500.000000L703.703704,518.518519L722.222222,500.000000L740.740741,481.481481L722.222222,444.444444L703.703704,407.407407L666.666667,388.888889L629.629630,370.370370L611.111111,388.888889L592.592593,407.407407L611.111111,444.444444Z" fill="rgb(169.632, 169.632, 169.632)" stroke="black" stroke-width="1"/>
<path d="M740.740741,481.481481L777.777778,500.000000L814.814815,518.518519L833.333333,500.000000L851.851852,481.481481L833.333333,444.444444L814.814815,407.407407L777.777778,388.888889L740.740741,370.370370L722.222222,388.888889L703.703704,407.407407L722.222222,444.444444Z" fill="rgb(93.8937, 93.8937, 93.8937)" stroke="black" stroke-width="1"/>
<path d="M851.851852,481.481481L888.888889,500.000000L925.925926,518.518519L944.444444,500.000000L962.962963,481.481481L944.444444,444.444444L925.925926,407.407407L888.888889,388.888889L851.851852,370.370370L833.333333,388.888889L814.814815,407.407407L833.333333,444.444444Z" fill="rgb(188.32, 188.32, 188.32)" stroke="black" stroke-width="1"/>
<path d="M944.444444,444.444444L962.962963,481.481481L1000.000000,500.000000L1000.000000,444.444444L1000.000000,388.888889L962.962963,370.370370L944.444444,388.888889L925.925926,407.407407Z" fill="rgb(84.2866, 84.2866, 84.2866)" stroke="black" stroke-width="1"/>
<path d="M0.000000,388.888889L37.037037,407.407407L55.555556,388.888889L74.074074,370.370370L55.555556,333.333333L37.037037,296.296296L0.000000,277.777778L0.000000,333.333333Z" fill="rgb(51.032, 51.032, 51.032)" stroke="black" stroke-width="1"/>
<path d="M55.555556,333.333333L74.074074,370.370370L111.111111,388.888889L148.148148,407.407407L166.666667,388.888889L185.185185,370.370370L166.666667,333.333333L148.148148,296.296296L111.111111,277.777778L74.074074,259.259259L55.555556,277.777778L37.037037,296.296296Z" fill="rgb(157.009, 157.009, 157.009)" stroke="black" stroke-width="1"/>
<path d="M166.666667,333.333333L185.185185,370.370370L222.222222,388.888889L259.259259,407.407407L277.777778,388.888889L296.296296,370.370370L277.777778,333.333333L259.259259,296.296296L222.222222,277.777778L185.185185,259.259259L166.666667,277.777778L148.148148,296.296296Z" fill="rgb(154.059, 154.059, 154.059)" stroke="black" stroke-width="1"/>
<path d="M277.777778,333.333333L296.296296,370.370370L333.333333,388.888889L370.370370,407.407407L388.888889,388.888889L407.407407,370.370370L388.888889,333.333333L370.370370,296.296296L333.333333,277.777778L296.296296,259.259259L277.777778,277.777778L259.259259,296.296296Z" fill="rgb(150.916, 150.916, 150.916)" stroke="black" stroke-width="1"/>
<path d="M388.888889,333.333333L407.407407,370.370370L444.444444,388.888889L481.481481,407.407407L500.000000,388.888889L518.518519,370.370370L500.000000,333.333333L481.481481,296.296296L444.444444,277.777778L407.407407,259.259259L388.888889,277.777778L370.370370,296.296296Z" fill="rgb(155.736, 155.736, 155.736)" stroke="black" stroke-width="1"/>
<path d="M500.000000,333.333333L518.518519,370.370370L555.555556,388.888889L592.592593,407.407407L611.111111,388.888889L629.629630,370.370370L611.111111,333.333333L592.592593,296.296296L555.555556,277.777778L518.518519,259.259259L500.000000,277.777778L481.481481,296.296296Z" fill="rgb(199.936, 199.936, 199.936)" stroke="black" stroke-width="1"/>
<path d="M611.111111,333.333333L629.629630,370.370370L666.666667,388.888889L703.703704,407.407407L722.222222,388.888889L740.740741,370.370370L722.222222,333.333333L703.703704,296.296296L666.666667,277.777778L629.629630,259.259259L611.111111,277.777778L592.592593,296.296296Z" fill="rgb(226.458, 226.458, 226.458)" stroke="black" stroke-width="1"/>
<path d="M740.740741,370.370370L777.777778,388.888889L814.814815,407.407407L833.333333,388.888889L851.851852,370.370370L833.333333,333.333333L814.814815,296.296296L777.777778,277.777778L740.740741,259.259259L722.222222,277.777778L703.703704,296.296296L722.222222,333.333333Z" fill="rgb(157.27, 157.27, 157.27)" stroke="black" stroke-width="1"/>
<path d="M851.851852,370.370370L888.888889,388.888889L925.925926,407.407407L944.444444,388.888889L962.962963,370.370370L944.444444,333.333333L925.925926,296.296296L888.888889,277.777778L851.851852,259.259259L833.333333,277.777778L814.814815,296.296296L833.333333,333.333333Z" fill="rgb(146.73, 146.73, 146.73)" stroke="black" stroke-width="1"/>
<path d="M944.444444,333.333333L962.962963,370.370370L1000.000000,388.888889L1000.000000,333.333333L1000.000000,277.777778L962.962963,259.259259L944.444444,277.777778L925.925926,296.296296Z" fill="rgb(86.0981, 86.0981, 86.0981)" stroke="black" stroke-width="1"/>
<path d="M0.000000,277.777778L37.037037,296.296296L55.555556,277.777778L74.074074,259.259259L55.555556,222.222222L37.037037,185.185185L0.000000,166.666667L0.000000,222.222222Z" fill="rgb(46.9333, 46.9333, 46.9333)" stroke="black" stroke-width="1"/>
<path d="M74.074074,259.259259L111.111111,277.777778L148.148148,296.296296L166.666667,277.777778L185.185185,259.259259L166.666667,222.222222L148.148148,185.185185L111.111111,166.666667L74.074074,148.148148L55.555556,166.666667L37.037037,185.185185L55.555556,222.222222Z" fill="rgb(152.083, 152.083, 152.083)" stroke="black" stroke-width="1"/>
<path d="M185.185185,259.259259L222.222222,277.777778L259.259259,296.296296L277.777778,277.777778L296.296296,259.259259L277.777778,222.222222L259.259259,185.185185L222.222222,166.666667L185.185185,148.148148L166.666667,166.666667L148.148148,185.185185L166.666667,222.222222Z" fill="rgb(134.797, 134.797, 134.797)" stroke="black" stroke-width="1"/>
<path d="M296.296296,259.259259L333.333333,277.777778L370.370370,296.296296L388.888889,277.777778L407.407407,259.259259L388.888889,222.222222L370.370370,185.185185L333.333333,166.666667L296.296296,148.148148L277.777778,166.666667L259.259259,185.185185L277.777778,222.222222Z" fill="rgb(149.688, 149.688, 149.688)" stroke="black" stroke-width="1"/>
<path d="M407.407407,259.259259L444.444444,277.777778L481.481481,296.296296L500.000000,277.777778L518.518519,259.259259L500.000000,222.222222L481.481481,185.185185L444.444444,166.666667L407.407407,148.148148L388.888889,166.666667L370.370370,185.185185L388.888889,222.222222Z" fill="rgb(206.493, 206.493, 206.493)" stroke="black" stroke-width="1"/>
<path d="M518.518519,259.259259L555.555556,277.777778L592.592593,296.296296L611.111111,277.777778L629.629630,259.259259L611.111111,222.222222L592.592593,185.185185L555.555556,166.666667L518.518519,148.148148L500.000000,166.666667L481.481481,185.185185L500.000000,222.222222Z" fill="rgb(255, 255, 255)" stroke="black" stroke-width="1"/>
<path d="M629.629630,259.259259L666.666667,277.777778L703.703704,296.296296L722.222222,277.777778L740.740741,259.259259L722.222222,222.222222L703.703704,185.185185L666.666667,166.666667L629.629630,148.148148L611.111111,166.666667L592.592593,185.185185L611.111111,222.222222Z" fill="rgb(179.834, 179.834, 179.834)" stroke="black" stroke-width="1"/>
<path d="M740.740741,259.259259L777.777778,277.777778L814.814815,296.296296L833.333333,277.777778L851.851852,259.259259L833.333333,222.222222L814.814815,185.185185L777.777778,166.666667L740.740741,148.148148L722.222222,166.666667L703.703704,185.185185L722.222222,222.222222Z" fill="rgb(160.415, 160.415, 160.415)" stroke="black" stroke-width="1"/>
<path d="M851.851852,259.259259L888.888889,277.777778L925.925926,296.296296L944.444444,277.777778L962.962963,259.259259L944.444444,222.222222L925.925926,185.185185L888.888889,166.666667L851.851852,148.148148L833.333333,166.666667L814.814815,185.185185L833.333333,222.222222Z" fill="rgb(89.6173, 89.6173, 89.6173)" stroke="black" stroke-width="1"/>
<path d="M944.444444,222.222222L962.962963,259.259259L1000.000000,277.777778L1000.000000,222.222222L1000.000000,166.666667L962.962963,148.148148L944.444444,166.666667L925.925926,185.185185Z" fill="rgb(68.8235, 68.8235, 68.8235)" stroke="black" stroke-width="1"/>
<path d="M0.000000,166.666667L37.037037,185.185185L55.555556,166.666667L74.074074,148.148148L55.555556,111.111111L37.037037,74.074074L0.000000,55.555556L0.000000,111.111111Z" fill="rgb(73.678, 73.678, 73.678)" stroke="black" stroke-width="1"/>
<path d="M55.555556,111.111111L74.074074,148.148148L111.111111,166.666667L148.148148,185.185185L166.666667,166.666667L185.185185,148.148148L166.666667,111.111111L148.148148,74.074074L111.111111,55.555556L74.074074,37.037037L55.555556,55.555556L37.037037,74.074074Z" fill="rgb(157.509, 157.509, 157.509)" stroke="black" stroke-width="1"/>
<path d="M166.666667,111.111111L185.185185,148.148148L222.222222,166.666667L259.259259,185.185185L277.777778,166.666667L296.296296,148.148148L277.777778,111.111111L259.259259,74.074074L222.222222,55.555556L185.185185,37.037037L166.666667,55.555556L148.148148,74.074074Z" fill="rgb(135.09, 135.09, 135.09)" stroke="black" stroke-width="1"/>
<path d="M296.296296,148.148148L333.333333,166.666667L370.370370,185.185185L388.888889,166.666667L407.407407,148.148148L388.888889,111.111111L370.370370,74.074074L333.333333,55.555556L296.296296,37.037037L277.777778,55.555556L259.259259,74.074074L277.777778,111.111111Z" fill="rgb(154.421, 154.421, 154.421)" stroke="black" stroke-width="1"/>
<path d="M388.888889,111.111111L407.407407,148.148148L444.444444,166.666667L481.481481,185.185185L500.000000,166.666667L518.518519,148.148148L500.000000,111.111111L481.481481,74.074074L444.444444,55.555556L407.407407,37.037037L388.888889,55.555556L370.370370,74.074074Z" fill="rgb(193.797, 193.797, 193.797)" stroke="black" stroke-width="1"/>
<path d="M500.000000,111.111111L518.518519,148.148148L555.555556,166.666667L592.592593,185.185185L611.111111,166.666667L629.629630,148.148148L611.111111,111.111111L592.592593,74.074074L555.555556,55.555556L518.518519,37.037037L500.000000,55.555556L481.481481,74.074074Z" fill="rgb(169.377, 169.377, 169.377)" stroke="black" stroke-width="1"/>
<path d="M611.111111,111.111111L629.629630,148.148148L666.666667,166.666667L703.703704,185.185185L722.222222,166.666667L740.740741,148.148148L722.222222,111.111111L703.703704,74.074074L666.666667,55.555556L629.629630,37.037037L611.111111,55.555556L592.592593,74.074074Z" fill="rgb(161.075, 161.075, 161.075)" stroke="black" stroke-width="1"/>
<path d="M722.222222,111.111111L740.740741,148.148148L777.777778,166.666667L814.814815,185.185185L833.333333,166.666667L851.851852,148.148148L833.333333,111.111111L814.814815,74.074074L777.777778,55.555556L740.740741,37.037037L722.222222,55.555556L703.703704,74.074074Z" fill="rgb(182.286, 182.286, 182.286)" stroke="black" stroke-width="1"/>
<path d="M833.333333,111.111111L851.851852,148.148148L888.888889,166.666667L925.925926,185.185185L944.444444,166.666667L962.962963,148.148148L944.444444,111.111111L925.925926,74.074074L888.888889,55.555556L851.851852,37.037037L833.333333,55.555556L814.814815,74.074074Z" fill="rgb(129.631, 129.631, 129.631)" stroke="black" stroke-width="1"/>
<path d="M944.444444,111.111111L962.962963,148.148148L1000.000000,166.666667L1000.000000,111.111111L1000.000000,55.555556L962.962963,37.037037L944.444444,55.555556L925.925926,74.074074Z" fill="rgb(15.1026, 15.1026, 15.1026)" stroke="black" stroke-width="1"/>
<path d="M0.000000,55.555556L37.037037,74.074074L55.555556,55.555556L74.074074,37.037037L55.555556,0.000000L0.000000,0.000000Z" fill="rgb(50.83, 50.83, 50.83)" stroke="black" stroke-width="1"/>
<path d="M74.074074,37.037037L111.111111,55.555556L148.148148,74.074074L166.666667,55.555556L185.185185,37.037037L166.666667,0.000000L111.111111,0.000000L55.555556,0.000000Z" fill="rgb(64.1285, 64.1285, 64.1285)" stroke="black" stroke-width="1"/>
<path d="M185.185185,37.037037L222.222222,55.555556L259.259259,74.074074L277.777778,55.555556L296.296296,37.037037L277.777778,0.000000L222.222222,0.000000L166.666667,0.000000Z" fill="rgb(61.9268, 61.9268, 61.9268)" stroke="black" stroke-width="1"/>
<path d="M296.296296,37.037037L333.333333,55.555556L370.370370,74.074074L388.888889,55.555556L407.407407,37.037037L388.888889,0.000000L333.333333,0.000000L277.777778,0.000000Z" fill="rgb(69.163, 69.163, 69.163)" stroke="black" stroke-width="1"/>
<path d="M407.407407,37.037037L444.444444,55.555556L481.481481,74.074074L500.000000,55.555556L518.518519,37.037037L500.000000,0.000000L444.444444,0.000000L388.888889,0.000000Z" fill="rgb(68.6312, 68.6312, 68.6312)" stroke="black" stroke-width="1"/>
<path d="M518.518519,37.037037L555.555556,55.555556L592.592593,74.074074L611.111111,55.555556L629.629630,37.037037L611.111111,0.000000L555.555556,0.000000L500.000000,0.000000Z" fill="rgb(65.3868, 65.3868, 65.3868)" stroke="black" stroke-width="1"/>
<path d="M629.629630,37.037037L666.666667,55.555556L703.703704,74.074074L722.222222,55.555556L740.740741,37.037037L722.222222,0.000000L666.666667,0.000000L611.111111,0.000000Z" fill="rgb(81.4951, 81.4951, 81.4951)" stroke="black" stroke-width="1"/>
<path d="M740.740741,37.037037L777.777778,55.555556L814.814815,74.074074L833.333333,55.555556L851.851852,37.037037L833.333333,0.000000L777.777778,0.000000L722.222222,0.000000Z" fill="rgb(94.1042, 94.1042, 94.1042)" stroke="black" stroke-width="1"/>
<path d="M851.851852,37.037037L888.888889,55.555556L925.925926,74.074074L944.444444,55.555556L962.962963,37.037037L944.444444,0.000000L888.888889,0.000000L833.333333,0.000000Z" fill="rgb(62.7307, 62.7307, 62.7307)" stroke="black" stroke-width="1"/>
<path d="M962.962963,37.037037L1000.000000,55.555556L1000.000000,0.000000L944.444444,0.000000Z" fill="rgb(0, 0, 0)" stroke="black" stroke-width="1"/>
</svg>
