<?xml version="1.0" encoding="UTF-8" ?>
<svg width="1000" height="1000" xmlns="http://www.w3.org/2000/svg" xmlns:xlink="http://www.w3.org/1999/xlink">
<path d="M0.000000,1000.000000L111.111111,1000.000000L0.000000,888.888889Z" fill="none" stroke="black" stroke-width="1"/>
<path d="M0.000000,888.888889L111.111111,1000.000000L111.111111,888.888889Z" fill="none" stroke="black" stroke-width="1"/>
<path d="M111.111111,1000.000000L222.222222,1000.000000L111.111111,888.888889Z" fill="none" stroke="black" stroke-width="1"/>
<path d="M111.111111,888.888889L222.222222,1000.000000L222.222222,888.888889Z" fill="none" stroke="black" stroke-width="1"/>
<path d="M222.222222,1000.000000L333.333333,1000.000000L222.222222,888.888889Z" fill="none" stroke="black" stroke-width="1"/>
<path d="M222.222222,888.888889L333.333333,1000.000000L333.333333,888.888889Z" fill="none" stroke="black" stroke-width="1"/>
<path d="M333.333333,1000.000000L444.444444,1000.000000L333.333333,888.888889Z" fill="none" stroke="black" stroke-width="1"/>
<path d="M333.333333,888.888889L444.444444,1000.000000L444.444444,888.888889Z" fill="none" stroke="black" stroke-width="1"/>
<path d="M444.444444,1000.000000L555.555556,1000.000000L444.444444,888.888889Z" fill="none" stroke="black" stroke-width="1"/>
<path d="M444.444444,888.888889L555.555556,1000.000000L555.555556,888.888889Z" fill="none" stroke="black" stroke-width="1"/>
<path d="M555.555556,1000.000000L666.666667,1000.000000L555.555556,888.888889Z" fill="none" stroke="black" stroke-width="1"/>
<path d="M555.555556,888.888889L666.666667,1000.000000L666.666667,888.888889Z" fill="none" stroke="black" stroke-width="1"/>
<path d="M666.666667,1000.000000L777.777778,1000.000000L666.666667,888.888889Z" fill="none" stroke="black" stroke-width="1"/>
<path d="M666.666667,888.888889L777.777778,1000.000000L777.777778,888.888889Z" fill="none" stroke="black" stroke-width="1"/>
<path d="M777.777778,1000.000000L888.888889,1000.000000L777.777778,888.888889Z" fill="none" stroke="black" stroke-width="1"/>
<path d="M777.777778,888.888889L888.888889,1000.000000L888.888889,888.888889Z" fill="none" stroke="black" stroke-width="1"/>
<path d="M888.888889,1000.000000L1000.000000,1000.000000L888.888889,888.888889Z" fill="none" stroke="black" stroke-width="1"/>
<path d="M888.888889,888.888889L1000.000000,1000.000000L1000.000000,888.888889Z" fill="none" stroke="black" stroke-width="1"/>
<path d="M0.000000,888.888889L111.111111,888.888889L0.000000,777.777778Z" fill="none" stroke="black" stroke-width="1"/>
<path d="M0.000000,777.777778L111.111111,888.888889L111.111111,777.777778Z" fill="none" stroke="black" stroke-width="1"/>
<path d="M111.111111,888.888889L222.222222,888.888889L111.111111,777.777778Z" fill="none" stroke="black" stroke-width="1"/>
<path d="M111.111111,777.777778L222.222222,888.888889L222.222222,777.777778Z" fill="none" stroke="black" stroke-width="1"/>
<path d="M222.222222,888.888889L333.333333,888.888889L222.222222,777.777778Z" fill="none" stroke="black" stroke-width="1"/>
<path d="M222.222222,777.777778L333.333333,888.888889L333.333333,777.777778Z" fill="none" stroke="black" stroke-width="1"/>
<path d="M333.333333,888.888889L444.444444,888.888889L333.333333,777.777778Z" fill="none" stroke="black" stroke-width="1"/>
<path d="M333.333333,777.777778L444.444444,888.888889L444.444444,777.777778Z" fill="none" stroke="black" stroke-width="1"/>
<path d="M444.444444,888.888889L555.555556,888.888889L444.444444,777.777778Z" fill="none" stroke="black" stroke-width="1"/>
<path d="M444.444444,777.777778L555.555556,888.888889L555.555556,777.777778Z" fill="none" stroke="black" stroke-width="1"/>
<path d="M555.555556,888.888889L666.666667,888.888889L555.555556,777.777778Z" fill="none" stroke="black" stroke-width="1"/>
<path d="M555.555556,777.777778L666.666667,888.888889L666.666667,777.777778Z" fill="none" stroke="black" stroke-width="1"/>
<path d="M666.666667,888.888889L777.777778,888.888889L666.666667,777.777778Z" fill="none" stroke="black" stroke-width="1"/>
<path d="M666.666667,777.777778L777.777778,888.888889L777.777778,777.777778Z" fill="none" stroke="black" stroke-width="1"/>
<path d="M777.777778,888.888889L888.888889,888.888889L777.777778,777.777778Z" fill="none" stroke="black" stroke-width="1"/>
<path d="M777.777778,777.777778L888.888889,888.888889L888.888889,777.777778Z" fill="none" stroke="black" stroke-width="1"/>
<path d="M888.888889,888.888889L1000.000000,888.888889L888.888889,777.777778Z" fill="none" stroke="black" stroke-width="1"/>
<path d="M888.888889,777.777778L1000.000000,888.888889L1000.000000,777.777778Z" fill="none" stroke="black" stroke-width="1"/>
<path d="M0.000000,777.777778L111.111111,777.777778L0.000000,666.666667Z" fill="none" stroke="black" stroke-width="1"/>
<path d="M0.000000,666.666667L111.111111,777.777778L111.111111,666.666667Z" fill="none" stroke="black" stroke-width="1"/>
<path d="M111.111111,777.777778L222.222222,777.777778L111.111111,666.666667Z" fill="none" stroke="black" stroke-width="1"/>
<path d="M111.111111,666.666667L222.222222,777.777778L222.222222,666.666667Z" fill="none" stroke="black" stroke-width="1"/>
<path d="M222.222222,777.777778L333.333333,777.777778L222.222222,666.666667Z" fill="none" stroke="black" stroke-width="1"/>
<path d="M222.222222,666.666667L333.333333,777.777778L333.333333,666.666667Z" fill="none" stroke="black" stroke-width="1"/>
<path d="M333.333333,777.777778L444.444444,777.777778L333.333333,666.666667Z" fill="none" stroke="black" stroke-width="1"/>
<path d="M333.333333,666.666667L444.444444,777.777778L444.444444,666.666667Z" fill="none" stroke="black" stroke-width="1"/>
<path d="M444.444444,777.777778L555.555556,777.777778L444.444444,666.666667Z" fill="none" stroke="black" stroke-width="1"/>
<path d="M444.444444,666.666667L555.555556,777.777778L555.555556,666.666667Z" fill="none" stroke="black" stroke-width="1"/>
<path d="M555.555556,777.777778L666.666667,777.777778L555.555556,666.666667Z" fill="none" stroke="black" stroke-width="1"/>
<path d="M555.555556,666.666667L666.666667,777.777778L666.666667,666.666667Z" fill="none" stroke="black" stroke-width="1"/>
<path d="M666.666667,777.777778L777.777778,777.777778L666.666667,666.666667Z" fill="none" stroke="black" stroke-width="1"/>
<path d="M666.666667,666.666667L777.777778,777.777778L777.777778,666.666667Z" fill="none" stroke="black" stroke-width="1"/>
<path d="M777.777778,777.777778L888.888889,777.777778L777.777778,666.666667Z" fill="none" stroke="black" stroke-width="1"/>
<path d="M777.777778,666.666667L888.888889,777.777778L888.888889,666.666667Z" fill="none" stroke="black" stroke-width="1"/>
<path d="M888.888889,777.777778L1000.000000,777.777778L888.888889,666.666667Z" fill="none" stroke="black" stroke-width="1"/>
<path d="M888.888889,666.666667L1000.000000,777.777778L1000.000000,666.666667Z" fill="none" stroke="black" stroke-width="1"/>
<path d="M0.000000,666.666667L111.111111,666.666667L0.000000,555.555556Z" fill="none" stroke="black" stroke-width="1"/>
<path d="M0.000000,555.555556L111.111111,666.666667L111.111111,555.555556Z" fill="none" stroke="black" stroke-width="1"/>
<path d="M111.111111,666.666667L222.222222,666.666667L111.111111,555.555556Z" fill="none" stroke="black" stroke-width="1"/>
<path d="M111.111111,555.555556L222.222222,666.666667L222.222222,555.555556Z" fill="none" stroke="black" stroke-width="1"/>
<path d="M222.222222,666.666667L333.333333,666.666667L222.222222,555.555556Z" fill="none" stroke="black" stroke-width="1"/>
<path d="M222.222222,555.555556L333.333333,666.666667L333.333333,555.555556Z" fill="none" stroke="black" stroke-width="1"/>
<path d="M333.333333,666.666667L444.444444,666.666667L333.333333,555.555556Z" fill="none" stroke="black" stroke-width="1"/>
<path d="M333.333333,555.555556L444.444444,666.666667L444.444444,555.555556Z" fill="none" stroke="black" stroke-width="1"/>
<path d="M444.444444,666.666667L555.555556,666.666667L444.444444,555.555556Z" fill="none" stroke="black" stroke-width="1"/>
<path d="M444.444444,555.555556L555.555556,666.666667L555.555556,555.555556Z" fill="none" stroke="black" stroke-width="1"/>
<path d="M555.555556,666.666667L666.666667,666.666667L555.555556,555.555556Z" fill="none" stroke="black" stroke-width="1"/>
<path d="M555.555556,555.555556L666.666667,666.666667L666.666667,555.555556Z" fill="none" stroke="black" stroke-width="1"/>
<path d="M666.666667,666.666667L777.777778,666.666667L666.666667,555.555556Z" fill="none" stroke="black" stroke-width="1"/>
<path d="M666.666667,555.555556L777.777778,666.666667L777.777778,555.555556Z" fill="none" stroke="black" stroke-width="1"/>
<path d="M777.777778,666.666667L888.888889,666.666667L777.777778,555.555556Z" fill="none" stroke="black" stroke-width="1"/>
<path d="M777.777778,555.555556L888.888889,666.666667L888.888889,555.555556Z" fill="none" stroke="black" stroke-width="1"/>
<path d="M888.888889,666.666667L1000.000000,666.666667L888.888889,555.555556Z" fill="none" stroke="black" stroke-width="1"/>
<path d="M888.888889,555.555556L1000.000000,666.666667L1000.000000,555.555556Z" fill="none" stroke="black" stroke-width="1"/>
<path d="M0.000000,555.555556L111.111111,555.555556L0.000000,444.444444Z" fill="none" stroke="black" stroke-width="1"/>
<path d="M0.000000,444.444444L111.111111,555.555556L111.111111,444.444444Z" fill="none" stroke="black" stroke-width="1"/>
<path d="M111.111111,555.555556L222.222222,555.555556L111.111111,444.444444Z" fill="none" stroke="black" stroke-width="1"/>
<path d="M111.111111,444.444444L222.222222,555.555556L222.222222,444.444444Z" fill="none" stroke="black" stroke-width="1"/>
<path d="M222.222222,555.555556L333.333333,555.555556L222.222222,444.444444Z" fill="none" stroke="black" stroke-width="1"/>
<path d="M222.222222,444.444444L333.333333,555.555556L333.333333,444.444444Z" fill="none" stroke="black" stroke-width="1"/>
<path d="M333.333333,555.555556L444.444444,555.555556L333.333333,444.444444Z" fill="none" stroke="black" stroke-width="1"/>
<path d="M333.333333,444.444444L444.444444,555.555556L444.444444,444.444444Z" fill="none" stroke="black" stroke-width="1"/>
<path d="M444.444444,555.555556L555.555556,555.555556L444.444444,444.444444Z" fill="none" stroke="black" stroke-width="1"/>
<path d="M444.444444,444.444444L555.555556,555.555556L555.555556,444.444444Z" fill="none" stroke="black" stroke-width="1"/>
<path d="M555.555556,555.555556L666.666667,555.555556L555.555556,444.444444Z" fill="none" stroke="black" stroke-width="1"/>
<path d="M555.555556,444.444444L666.666667,555.555556L666.666667,444.444444Z" fill="none" stroke="black" stroke-width="1"/>
<path d="M666.666667,555.555556L777.777778,555.555556L666.666667,444.444444Z" fill="none" stroke="black" stroke-width="1"/>
<path d="M666.666667,444.444444L777.777778,555.555556L777.777778,444.444444Z" fill="none" stroke="black" stroke-width="1"/>
<path d="M777.777778,555.555556L888.888889,555.555556L777.777778,444.444444Z" fill="none" stroke="black" stroke-width="1"/>
<path d="M777.777778,444.444444L888.888889,555.555556L888.888889,444.444444Z" fill="none" stroke="black" stroke-width="1"/>
<path d="M888.888889,555.555556L1000.000000,555.555556L888.888889,444.444444Z" fill="none" stroke="black" stroke-width="1"/>
<path d="M888.888889,444.444444L1000.000000,555.555556L1000.000000,444.444444Z" fill="none" stroke="black" stroke-width="1"/>
<path d="M0.000000,444.444444L111.111111,444.444444L0.000000,333.333333Z" fill="none" stroke="black" stroke-width="1"/>
<path d="M0.000000,333.333333L111.111111,444.444444L111.111111,333.333333Z" fill="none" stroke="black" stroke-width="1"/>
<path d="M111.111111,444.444444L222.222222,444.444444L111.111111,333.333333Z" fill="none" stroke="black" stroke-width="1"/>
<path d="M111.111111,333.333333L222.222222,444.444444L222.222222,333.333333Z" fill="none" stroke="black" stroke-width="1"/>
<path d="M222.222222,444.444444L333.333333,444.444444L222.222222,333.333333Z" fill="none" stroke="black" stroke-width="1"/>
<path d="M222.222222,333.333333L333.333333,444.444444L333.333333,333.333333Z" fill="none" stroke="black" stroke-width="1"/>
<path d="M333.333333,444.444444L444.444444,444.444444L333.333333,333.333333Z" fill="none" stroke="black" stroke-width="1"/>
<path d="M333.333333,333.333333L444.444444,444.444444L444.444444,333.333333Z" fill="none" stroke="black" stroke-width="1"/>
<path d="M444.444444,444.444444L555.555556,444.444444L444.444444,333.333333Z" fill="none" stroke="black" stroke-width="1"/>
<path d="M444.444444,333.333333L555.555556,444.444444L555.555556,333.333333Z" fill="none" stroke="black" stroke-width="1"/>
<path d="M555.555556,444.444444L666.666667,444.444444L555.555556,333.333333Z" fill="none" stroke="black" stroke-width="1"/>
<path d="M555.555556,333.333333L666.666667,444.444444L666.666667,333.333333Z" fill="none" stroke="black" stroke-width="1"/>
<path d="M666.666667,444.444444L777.777778,444.444444L666.666667,333.333333Z" fill="none" stroke="black" stroke-width="1"/>
<path d="M666.666667,333.333333L777.777778,444.444444L777.777778,333.333333Z" fill="none" stroke="black" stroke-width="1"/>
<path d="M777.777778,444.444444L888.888889,444.444444L777.777778,333.333333Z" fill="none" stroke="black" stroke-width="1"/>
<path d="M777.777778,333.333333L888.888889,444.444444L888.888889,333.333333Z" fill="none" stroke="black" stroke-width="1"/>
<path d="M888.888889,444.444444L1000.000000,444.444444L888.888889,333.333333Z" fill="none" stroke="black" stroke-width="1"/>
<path d="M888.888889,333.333333L1000.000000,444.444444L1000.000000,333.333333Z" fill="none" stroke="black" stroke-width="1"/>
<path d="M0.000000,333.333333L111.111111,333.333333L0.000000,222.222222Z" fill="none" stroke="black" stroke-width="1"/>
<path d="M0.000000,222.222222L111.111111,333.333333L111.111111,222.222222Z" fill="none" stroke="black" stroke-width="1"/>
<path d="M111.111111,333.333333L222.222222,333.333333L111.111111,222.222222Z" fill="none" stroke="black" stroke-width="1"/>
<path d="M111.111111,222.222222L222.222222,333.333333L222.222222,222.222222Z" fill="none" stroke="black" stroke-width="1"/>
<path d="M222.222222,333.333333L333.333333,333.333333L222.222222,222.222222Z" fill="none" stroke="black" stroke-width="1"/>
<path d="M222.222222,222.222222L333.333333,333.333333L333.333333,222.222222Z" fill="none" stroke="black" stroke-width="1"/>
<path d="M333.333333,333.333333L444.444444,333.333333L333.333333,222.222222Z" fill="none" stroke="black" stroke-width="1"/>
<path d="M333.333333,222.222222L444.444444,333.333333L444.444444,222.222222Z" fill="none" stroke="black" stroke-width="1"/>
<path d="M444.444444,333.333333L555.555556,333.333333L444.444444,222.222222Z" fill="none" stroke="black" stroke-width="1"/>
<path d="M444.444444,222.222222L555.555556,333.333333L555.555556,222.222222Z" fill="none" stroke="black" stroke-width="1"/>
<path d="M555.555556,333.333333L666.666667,333.333333L555.555556,222.222222Z" fill="none" stroke="black" stroke-width="1"/>
<path d="M555.555556,222.222222L666.666667,333.333333L666.666667,222.222222Z" fill="none" stroke="black" stroke-width="1"/>
<path d="M666.666667,333.333333L777.777778,333.333333L666.666667,222.222222Z" fill="none" stroke="black" stroke-width="1"/>
<path d="M666.666667,222.222222L777.777778,333.333333L777.777778,222.222222Z" fill="none" stroke="black" stroke-width="1"/>
<path d="M777.777778,333.333333L888.888889,333.333333L777.777778,222.222222Z" fill="none" stroke="black" stroke-width="1"/>
<path d="M777.777778,222.222222L888.888889,333.333333L888.888889,222.222222Z" fill="none" stroke="black" stroke-width="1"/>
<path d="M888.888889,333.333333L1000.000000,333.333333L888.888889,222.222222Z" fill="none" stroke="black" stroke-width="1"/>
<path d="M888.888889,222.222222L1000.000000,333.333333L1000.000000,222.222222Z" fill="none" stroke="black" stroke-width="1"/>
<path d="M0.000000,222.222222L111.111111,222.222222L0.000000,111.111111Z" fill="none" stroke="black" stroke-width="1"/>
<path d="M0.000000,111.111111L111.111111,222.222222L111.111111,111.111111Z" fill="none" stroke="black" stroke-width="1"/>
<path d="M111.111111,222.222222L222.222222,222.222222L111.111111,111.111111Z" fill="none" stroke="black" stroke-width="1"/>
<path d="M111.111111,111.111111L222.222222,222.222222L222.222222,111.111111Z" fill="none" stroke="black" stroke-width="1"/>
<path d="M222.222222,222.222222L333.333333,222.222222L222.222222,111.111111Z" fill="none" stroke="black" stroke-width="1"/>
<path d="M222.222222,111.111111L333.333333,222.222222L333.333333,111.111111Z" fill="none" stroke="black" stroke-width="1"/>
<path d="M333.333333,222.222222L444.444444,222.222222L333.333333,111.111111Z" fill="none" stroke="black" stroke-width="1"/>
<path d="M333.333333,111.111111L444.444444,222.222222L444.444444,111.111111Z" fill="none" stroke="black" stroke-width="1"/>
<path d="M444.444444,222.222222L555.555556,222.222222L444.444444,111.111111Z" fill="none" stroke="black" stroke-width="1"/>
<path d="M444.444444,111.111111L555.555556,222.222222L555.555556,111.111111Z" fill="none" stroke="black" stroke-width="1"/>
<path d="M555.555556,222.222222L666.666667,222.222222L555.555556,111.111111Z" fill="none" stroke="black" stroke-width="1"/>
<path d="M555.555556,111.111111L666.666667,222.222222L666.666667,111.111111Z" fill="none" stroke="black" stroke-width="1"/>
<path d="M666.666667,222.222222L777.777778,222.222222L666.666667,111.111111Z" fill="none" stroke="black" stroke-width="1"/>
<path d="M666.666667,111.111111L777.777778,222.222222L777.777778,111.111111Z" fill="none" stroke="black" stroke-width="1"/>
<path d="M777.777778,222.222222L888.888889,222.222222L777.777778,111.111111Z" fill="none" stroke="black" stroke-width="1"/>
<path d="M777.777778,111.111111L888.888889,222.222222L888.888889,111.111111Z" fill="none" stroke="black" stroke-width="1"/>
<path d="M888.888889,222.222222L1000.000000,222.222222L888.888889,111.111111Z" fill="none" stroke="black" stroke-width="1"/>
<path d="M888.888889,111.111111L1000.000000,222.222222L1000.000000,111.111111Z" fill="none" stroke="black" stroke-width="1"/>
<path d="M0.000000,111.111111L111.111111,111.111111L0.000000,0.000000Z" fill="none" stroke="black" stroke-width="1"/>
<path d="M0.000000,0.000000L111.111111,111.111111L111.111111,0.000000Z" fill="none" stroke="black" stroke-width="1"/>
<path d="M111.111111,111.111111L222.222222,111.111111L111.111111,0.000000Z" fill="none" stroke="black" stroke-width="1"/>
<path d="M111.111111,0.000000L222.222222,111.111111L222.222222,0.000000Z" fill="none" stroke="black" stroke-width="1"/>
<path d="M222.222222,111.111111L333.333333,111.111111L222.222222,0.000000Z" fill="none" stroke="black" stroke-width="1"/>
<path d="M222.222222,0.000000L333.333333,111.111111L333.333333,0.000000Z" fill="none" stroke="black" stroke-width="1"/>
<path d="M333.333333,111.111111L444.444444,111.111111L333.333333,0.000000Z" fill="none" stroke="black" stroke-width="1"/>
<path d="M333.333333,0.000000L444.444444,111.111111L444.444444,0.000000Z" fill="none" stroke="black" stroke-width="1"/>
<path d="M444.444444,111.111111L555.555556,111.111111L444.444444,0.000000Z" fill="none" stroke="black" stroke-width="1"/>
<path d="M444.444444,0.000000L555.555556,111.111111L555.555556,0.000000Z" fill="none" stroke="black" stroke-width="1"/>
<path d="M555.555556,111.111111L666.666667,111.111111L555.555556,0.000000Z" fill="none" stroke="black" stroke-width="1"/>
<path d="M555.555556,0.000000L666.666667,111.111111L666.666667,0.000000Z" fill="none" stroke="black" stroke-width="1"/>
<path d="M666.666667,111.111111L777.777778,111.111111L666.666667,0.000000Z" fill="none" stroke="black" stroke-width="1"/>
<path d="M666.666667,0.000000L777.777778,111.111111L777.777778,0.000000Z" fill="none" stroke="black" stroke-width="1"/>
<path d="M777.777778,111.111111L888.888889,111.111111L777.777778,0.000000Z" fill="none" stroke="black" stroke-width="1"/>
<path d="M777.777778,0.000000L888.888889,111.111111L888.888889,0.000000Z" fill="none" stroke="black" stroke-width="1"/>
<path d="M888.888889,111.111111L1000.000000,111.111111L888.888889,0.000000Z" fill="none" stroke="black" stroke-width="1"/>
<path d="M888.888889,0.000000L1000.000000,111.111111L1000.000000,0.000000Z" fill="none" stroke="black" stroke-width="1"/>
</svg>
